<svg xmlns="http://www.w3.org/2000/svg" width="1024" height="1024" viewBox="0 0 1024 1024" fill="none">
  <rect x="80" y="80" width="864" height="864" rx="216" fill="#eff7f3"/>
  <rect x="80" y="80" width="864" height="864" rx="216" stroke="#b9d4ca" stroke-width="32"/>
  <g transform="translate(192 192) scale(26.6666667)" stroke="#2f765c" stroke-width="2" stroke-linecap="round" stroke-linejoin="round">
    <path d="M7 10H6a4 4 0 0 1-4-4 1 1 0 0 1 1-1h4"/>
    <path d="M7 5a1 1 0 0 1 1-1h13a1 1 0 0 1 1 1 7 7 0 0 1-7 7H8a1 1 0 0 1-1-1z"/>
    <path d="M9 12v5"/>
    <path d="M15 12v5"/>
    <path d="M5 20a3 3 0 0 1 3-3h8a3 3 0 0 1 3 3 1 1 0 0 1-1 1H6a1 1 0 0 1-1-1"/>
  </g>
</svg>
